<svg xmlns="http://www.w3.org/2000/svg" viewBox="0 0 500 500"><g id="freepik--background-complete--inject-21"><rect x="48.57" y="189.92" width="402.86" height="40.44" style="fill:#ebebeb"></rect><rect x="301.93" y="70.89" width="55.17" height="75.17" style="fill:#fff"></rect><path d="M360,148.93V68h-60.9v80.91Zm-58-78h55.16v75.17H301.93Z" style="fill:#ebebeb"></path><rect x="307.86" y="79.61" width="39.07" height="43" transform="translate(226.28 428.5) rotate(-90)" style="fill:#ebebeb"></rect><rect x="308.49" y="97.46" width="42.03" height="22.03" transform="translate(221.03 437.98) rotate(-90)" style="fill:#c7c7c7"></rect><rect x="296.7" y="68.02" width="2.35" height="80.91" transform="translate(595.76 216.95) rotate(180)" style="fill:#dbdbdb"></rect><rect x="223.59" y="70.89" width="55.17" height="75.17" style="fill:#fff"></rect><rect x="254.87" y="75.62" width="14.4" height="61.61" style="fill:#c7c7c7"></rect><path d="M281.63,148.93V68H220.72v80.91Zm-58-78h55.17v75.17H223.59Z" style="fill:#ebebeb"></path><rect x="240.16" y="87.46" width="22.03" height="42.03" style="fill:#ebebeb"></rect><rect x="218.37" y="68.02" width="2.35" height="80.91" transform="translate(439.09 216.95) rotate(180)" style="fill:#dbdbdb"></rect><rect x="145.26" y="70.89" width="55.17" height="75.17" style="fill:#fff"></rect><rect x="164.04" y="120.44" width="30.27" height="18.1" style="fill:#ebebeb"></rect><path d="M203.3,148.93V68H142.39v80.91Zm-58-78h55.17v75.17H145.26Z" style="fill:#ebebeb"></path><rect x="161.83" y="87.46" width="22.03" height="42.03" style="fill:#c7c7c7"></rect><rect x="140.04" y="68.02" width="2.35" height="80.91" transform="translate(282.43 216.95) rotate(180)" style="fill:#dbdbdb"></rect></g><g id="freepik--Floor--inject-21"><path d="M48.57,453.83c129.05-.61,273.81-.62,402.86,0-129,.62-273.81.61-402.86,0Z" style="fill:#263238"></path></g><g id="freepik--Plant--inject-21"><path d="M376.17,308a101.88,101.88,0,0,1,2.37-16.67c1.17-4.93,2.84-10,5.95-14.06,2.85-3.72,6.93-6.69,11.68-7.27,4.57-.56,8.86,1.48,12.28,4.36,4.24,3.57,7.48,8.29,10.53,12.87a156.39,156.39,0,0,1,9.09,15.92c.09.18-.18.33-.27.15a99,99,0,0,0-8.13-13.32,84.12,84.12,0,0,0-9.37-11.34c-3.14-3.06-7.12-5.93-11.67-6.07s-8.7,2.39-11.43,5.88c-3,3.9-4.59,8.77-5.75,13.51a101.27,101.27,0,0,0-2.35,15.87c-.89,11-1.13,22-1.38,33-.14,6.23-.22,12.46-.28,18.69q0,4.74-.08,9.47a58,58,0,0,1-.36,9.14c-.11.61-1.11.55-1.21,0a54.39,54.39,0,0,1-.42-8.66q-.06-4.49-.11-9c-.05-5.82-.08-11.64-.06-17.46C375.23,331.32,375.37,319.6,376.17,308Z" style="fill:#263238"></path><path d="M391.86,299.67c.58-3.1,1.63-7.15,3.4-9.56,3.18-4.32,6.61-2.44,3.44,2.35a28.53,28.53,0,0,0-4.47,11.8s5.35,7.63,11.8,11.39c-.28-2.93-1.11-7.45-.54-11.8,1.24-9.43,6.95-8.9,5.54-1.41-1.14,6-1.6,12.39-1.29,15.15a32,32,0,0,0,6.89,3.38c-.37-1.09-.76-2.41-1.2-4-2.29-8.45,3.35-11.09,3.53-6.33a66.87,66.87,0,0,0,2.19,12c3.1,1,5.66,1.75,7.23,2.3A26.44,26.44,0,0,1,439,332.15a33.16,33.16,0,0,0,7.21-9.32c-2-1.69-5.09-4.22-9.41-7.27-8.11-5.72-5.29-12.94,1.14-8.45,4.64,3.24,8.23,9.25,9.87,12.33a50.18,50.18,0,0,0,3.67-16.88c-6.36-6-22.11-14.3-17.36-14.3,4.27,0,13.82,6.26,17.33,8.68a42.62,42.62,0,0,0-.54-4.91c-6-3.93-25.48-10-22.38-11.8,3.42-1.93,17,4.36,21.12,6.36a24.67,24.67,0,0,0-3.6-7.46c-8.29-11.1-23.23-14.92-29.75-12.8-4.61,1.49-3.26,13.2-4.25,12.8C393.47,271.67,385,276.94,391.86,299.67Zm45.42-1.28c1.31-1.59,7.39,3.08,5.63,5.64S435.58,300.42,437.28,298.39Zm-31.78-10c1.6,1-.76,6.93-3.23,5.14C400.17,292,403.89,287.38,405.5,288.41Z" style="fill:#E6D7C0"></path><path d="M407.93,290.22c.84-1.65,1.71-3.3,2.66-4.89a29.42,29.42,0,0,1,3.06-4.44c-.26-.32-.52-.65-.79-1-.11-.13.08-.31.2-.19.31.36.6.72.9,1.08a.24.24,0,0,1,.13.15c1.15,1.37,2.23,2.79,3.26,4.23a50.13,50.13,0,0,1,5.38,1.56c1.81.61,3.62,1.24,5.38,2,.19.07.09.38-.09.3-1.75-.78-3.52-1.53-5.34-2.14s-3.46-1-5.2-1.52c.57.8,1.12,1.6,1.66,2.42a64.3,64.3,0,0,1,9.51,3.88c3.22,1.53,6.31,3.31,9.39,5.09.18.1,0,.37-.16.26-3-1.8-6.16-3.34-9.34-4.83-3-1.39-6.07-2.54-9.07-3.87,7.56,11.81,12.1,25.43,18.17,38.05.09.18-.2.33-.28.15-1.85-4.42-4-8.73-6-13.09-1.81-3.9-3.58-7.83-5.39-11.74-.53-1.14-1.08-2.28-1.63-3.42.33,6.31.2,12.72,1.23,19a.16.16,0,1,1-.31,0c-.44-6.74-1.63-13.37-1.58-20.15,0,0,0-.06,0-.09-1.28-2.58-2.65-5.12-4.13-7.59-2.51,5.9-5.14,11.89-6.31,18.23,0,.19-.36.11-.3-.09,1.7-6.35,3.28-12.71,6.34-18.59a71,71,0,0,0-5.33-7.68c-.84,1.57-1.92,3.05-2.87,4.55s-1.85,2.94-2.71,4.45a63.93,63.93,0,0,0-4.74,10c-.07.19-.38.09-.3-.09C404.81,296.86,406.28,293.48,407.93,290.22Z" style="fill:#263238"></path><path d="M348.29,304.58c4.85-4.87,10.5-11.26,18-11.25,7.24,0,12.57,5.84,15.63,11.86,3.21,6.29,4.36,13.42,5.26,20.34a249.4,249.4,0,0,1,1.92,25c.13,4.64.11,9.29,0,13.93A93.27,93.27,0,0,1,388,378.55a.7.7,0,0,1-1.39,0c-.22-3.91-.06-7.83,0-11.75s0-7.71-.18-11.56c-.28-7.79-.85-15.57-1.77-23.32-.79-6.76-1.43-13.72-3.45-20.25C379.38,305.74,376,299,370,296.41c-8.15-3.54-16.12,2.92-21.45,8.37C348.39,304.92,348.14,304.72,348.29,304.58Z" style="fill:#263238"></path><path d="M323.51,315.46h0c0,1,.1,2,.17,2.94a17.55,17.55,0,0,1,7.95-3.3c6.89-.73,6.45,4.51,1.85,4.73a26.22,26.22,0,0,0-9.46,1.9c1.13,9.09,3.63,16.41,4,16.51a133.64,133.64,0,0,0,18.21-2.3c-1.72-3.65-5.62-8.51-3.63-8.9s4.16,3.93,5.26,8.57A87.13,87.13,0,0,0,361.12,332c-3-2.62-7.72-5.89-5.93-7.28s5.51,3.21,7.74,6.55a27.14,27.14,0,0,0,5.72-3.19c-4.08-6-14-7.22-12.74-11.56s10.62,1.68,14.8,9.71c4.91-5.09,6.35-12.3,5.83-18.46-4.28-.5-12.51.41-11.91-2.67.56-2.92,6.54-2.48,11.41-.69a17.18,17.18,0,0,0-2.86-6.77c-4.51-5.79-18.26,1.57-18.26,1.57s1.47-13.82-3.78-16.21c-3-1.38-8.36-1.37-13.71,1.79,3,.24,6.63,1.2,8.09,3.28,1.86,2.66-1.08,4.1-2.95,2.88-1.32-.87-3.78-3.61-8.22-4a27.46,27.46,0,0,0-5,5.5c-.5.71-1,1.47-1.45,2.28A18.93,18.93,0,0,1,344,295c6,3,2.63,9.15-2.5,6.74s-10-4.77-15.46-3.4c-2,4.6-2.66,10.05-2.61,15.42a26.9,26.9,0,0,1,8.83-4.25c5.93-1.55,7.72,2,1.21,2.65A26.15,26.15,0,0,0,323.51,315.46Zm7.22-9.52c-.41-1.92,3.79-2.47,4.49-.92C335.81,306.35,331.13,307.86,330.73,305.94Zm36,10.64c.4-1.05,3.22.14,3,1.45C369.31,319.77,366.32,317.63,366.7,316.58Zm-19.86,6.74c2.05-.82,5.26,4.28,3,5.44S345.17,324,346.84,323.32Z" style="fill:#E6D7C0"></path><path d="M328.83,337.2c3.09-5.17,6.15-10.36,9.39-15.43,1.51-2.37,3.09-4.68,4.74-6.95-.25-.05-.5-.13-.74-.18l-1.23-.23c-.95-.17-1.9-.31-2.86-.4s-1.81-.14-2.72-.15a12.8,12.8,0,0,0-2.9.15c-.11,0-.13-.16,0-.16,1,0,1.95-.08,2.92-.1s1.88,0,2.82.07,1.75.14,2.63.27c.48.08,1,.16,1.44.26a6.58,6.58,0,0,1,.86.18q2.52-3.45,5.21-6.77a61.93,61.93,0,0,0-16.91-5.4c-.1,0-.07-.17,0-.15a57.14,57.14,0,0,1,17.16,5.21c1-1.22,2-2.42,3-3.63s2.31-2.65,3.32-4.08c.07-.09.2,0,.13.09a58.66,58.66,0,0,0-3.93,4.8h0a58.67,58.67,0,0,1,6.29,5.05c2.06,1.82,4.07,3.71,6,5.64.08.07,0,.19-.1.11-1.93-1.91-3.93-3.74-6-5.47s-4.28-3.33-6.38-5.05c0,0,0,0,0,0l-1.44,1.89-.73.95a.18.18,0,0,1-.05.07q-1.2,1.56-2.4,3.15a24.8,24.8,0,0,1,2.39,4.31c.69,1.45,1.3,3,1.85,4.48a65.75,65.75,0,0,1,2.58,9.68c0,.1-.13.14-.15,0a56.21,56.21,0,0,0-2.82-9.49c-.6-1.58-1.28-3.12-2-4.66-.64-1.39-1.41-2.74-2-4.15-.69.92-1.38,1.85-2.06,2.78-.19.27-.38.55-.58.82,0,.06,0,.14-.07.14h0c-2.12,3-4.14,6-6.11,9.07a2.61,2.61,0,0,1,.27.67c.13.37.25.75.36,1.13a22,22,0,0,1,.54,2.3c.13.72.23,1.46.3,2.2a20.72,20.72,0,0,0,.19,2.5c0,.12-.17.13-.15,0a8.31,8.31,0,0,0-.17-2.33c-.12-.8-.26-1.59-.45-2.38s-.36-1.42-.57-2.11c-.1-.35-.22-.7-.34-1.05-.06-.18-.15-.37-.21-.57q-1.38,2.16-2.73,4.35c-1.78,2.89-3.54,5.79-5.32,8.68C329,337.47,328.74,337.35,328.83,337.2Z" style="fill:#263238"></path><path d="M376.49,376.88c.08-2.93.54-5.88.86-8.79s.65-5.85,1-8.78c.6-5.64.94-11.4,2.27-16.93a24.62,24.62,0,0,1,6.88-12.66,11.24,11.24,0,0,1,6.76-3.23,11.62,11.62,0,0,1,7.17,2.22,24.62,24.62,0,0,1,6,6.35,62.47,62.47,0,0,1,4.71,7.64c.05.1-.11.16-.16.07a39.09,39.09,0,0,0-10.18-11.4,12,12,0,0,0-6.41-2.68,8.71,8.71,0,0,0-6.22,2.48c-3.42,3-5.39,7.34-6.57,11.63-1.4,5.08-1.85,10.43-2.54,15.64-.42,3.1-.81,6.2-1.22,9.29s-.67,6.25-1.32,9.29A.52.52,0,0,1,376.49,376.88Z" style="fill:#263238"></path><path d="M390.89,354.14a16.58,16.58,0,0,0,3.19,3.25c-.48-2.86-1.07-7.94.38-10.64,2.24-4.2,4.89-2.1,3.55,1.55a29.66,29.66,0,0,0-2.15,10.34,44.85,44.85,0,0,0,9.72,4.59,16.49,16.49,0,0,1-.32-5c.45-4.49,3.89-4.41,3,.26a28.34,28.34,0,0,0-.48,5.48,100.9,100.9,0,0,0,15.16,3.42,44.14,44.14,0,0,0,6.28-11.17c-3.66-.91-11.05-1.12-10.89-3.73.21-3.51,7.37-.81,11.56,1.74a28,28,0,0,0,1.27-9.45,47,47,0,0,0-10.08-1.67c-7.52-.65-7.15-4.91-1.7-4.82,4,.08,9.11,2.54,11.52,3.82-1.57-10.23-9.37-16.79-15.63-17-10.52-.42-6.73,12.67-6.73,12.67s-7.13-5-13.86-4.88S383.7,344.13,390.89,354.14ZM419,335.21c-.23-1.47,4.46-1.82,4.71.07C424,337.4,419.23,336.71,419,335.21Zm7.55,15.36c-.09-1,1.93-1.13,2.39.08C429.24,351.44,426.63,351.52,426.54,350.57Zm-25.26.9c1.59.22,2.49,5.89-.24,5.78C399,357.16,399.94,351.28,401.28,351.47Z" style="fill:#E6D7C0"></path><path d="M403.48,357.76c.26-.7.49-1.42.72-2.14-.21.73-.39,1.46-.53,2.2C403.65,358,403.43,357.9,403.48,357.76Z" style="fill:#263238"></path><path d="M406.26,348.65c.49-1.45,1-2.89,1.61-4.32.3-.76.61-1.51.94-2.26a9.88,9.88,0,0,1,.94-1.9,14.54,14.54,0,0,1-.85-1.84c0-.05.06-.1.1-.05a22.41,22.41,0,0,1,2.05,3.18c.29.49.57,1,.85,1.5a15.13,15.13,0,0,1,1.77.27l1.89.39,1.87.43c.62.15,1.24.36,1.87.45.14,0,.08.25-.05.2a12.4,12.4,0,0,0-2-.51c-.61-.13-1.21-.24-1.82-.33s-1.23-.16-1.84-.22c-.46-.05-.93-.07-1.39-.12.25.44.51.88.75,1.33a2.12,2.12,0,0,1,.11.21,5.89,5.89,0,0,1,1.51.18c.55.09,1.09.2,1.63.32,1.1.24,2.19.5,3.27.8,2.28.64,4.53,1.36,6.77,2.1.13,0,.05.23-.08.19a63.35,63.35,0,0,0-6.8-1.89c-1.07-.24-2.15-.49-3.23-.72l-1.62-.34a10.9,10.9,0,0,1-1.26-.28c1.16,2.14,2.25,4.31,3.25,6.53,2.18,4.83,4,9.8,5.89,14.75.05.13-.14.21-.18.08A135.39,135.39,0,0,0,416,352.36c-.42-.86-.86-1.71-1.28-2.56,0,.17-.08.35-.11.52-.11.59-.21,1.17-.31,1.76-.2,1.17-.4,2.35-.57,3.52a41.06,41.06,0,0,0-.85,7.31c0,.16-.23.15-.2,0,.18-1.16.18-2.38.26-3.56s.17-2.46.31-3.68.29-2.37.48-3.54c.1-.59.2-1.17.31-1.76a3.61,3.61,0,0,1,.33-1.27c-.62-1.24-1.23-2.48-1.85-3.71s-1.18-2.31-1.78-3.46c-.25-.48-.53-1-.8-1.46a14.72,14.72,0,0,1-.69,1.77l-.82,2c-.6,1.46-1.16,2.95-1.72,4.43-.8,2.1-1.68,4.26-2.33,6.45C405,353,405.54,350.77,406.26,348.65Z" style="fill:#263238"></path><path d="M404.2,355.62c0-.17.1-.34.15-.51Z" style="fill:#263238"></path><polygon points="358.9 371.18 359.64 386.84 361.55 447.2 403.19 447.2 405.09 386.84 405.83 371.18 358.9 371.18" style="fill:#455a64"></polygon><polygon points="358.9 371.18 359.37 381.09 405.31 382.2 405.83 371.18 358.9 371.18" style="fill:#37474f"></polygon><rect x="355.94" y="364.85" width="52.85" height="12.66" transform="translate(764.73 742.36) rotate(180)" style="fill:#455a64"></rect><rect x="392.5" y="447.2" width="7.31" height="6.63" style="fill:#455a64"></rect><rect x="392.5" y="447.2" width="7.31" height="3.31" style="fill:#37474f"></rect><rect x="364.92" y="447.2" width="7.3" height="6.63" style="fill:#455a64"></rect><rect x="364.92" y="447.2" width="7.3" height="3.31" style="fill:#37474f"></rect></g><g id="freepik--character-1--inject-21"><path d="M138.42,130.36c6.6,24.89,17.77,49,25.73,50.9,9.64,2.29,13.61-24,12.27-24.71-1-.51-15.86-17.07-29.59-31.36C134.15,112,136.78,124.2,138.42,130.36Z" style="fill:#d3766a"></path><path d="M161.18,179.22c2.82,3.92,10.2,4.95,38.37,4.5,3.9-.06,8.85-28.55,4.68-28.69-5.25-.19-26.34,1.22-27.81,1.52C165.44,158.76,158.37,175.31,161.18,179.22Z" style="fill:#d3766a"></path><path d="M193.82,183.62a87.2,87.2,0,0,0,12,2.91c3.21.38,12.48,1.23,13.25-2.26.53-2.39-4.86-3.53-8.66-4.42-2-.47-4.63-2-4.28-3.34.62-2.26,5.78-.94,9.25.37,6.72,2.55,15.93,7.6,19.16,3.87,1.22-1.4-.78-3.27-3.53-5,4.3,1.8,8.79,3.12,10.21,1.6a2.09,2.09,0,0,0,0-2.86,2.78,2.78,0,0,0,2.93-1c1.05-1.54.11-3.39-1.61-5.17a1.5,1.5,0,0,0,1-.95c2-4.53-13.36-14.05-18.18-14.38a118.88,118.88,0,0,0-28.49,2C192.22,160.23,193.81,183.61,193.82,183.62Z" style="fill:#d3766a"></path><path d="M211.82,167.72a23.52,23.52,0,0,1,9.7,2c3.84,1.71,6.58,4,9.93,6.22a.08.08,0,0,1-.09.14c-1.6-1.05-8.13-4.92-9.79-5.77a22.42,22.42,0,0,0-9.75-2.53A0,0,0,0,1,211.82,167.72Z" style="fill:#263238"></path><path d="M213.41,161.5a55.94,55.94,0,0,1,11.21,1.92c3.95,1.25,7.31,3.81,10.6,6.26,2,1.47,3.92,3,5.82,4.55.08.06,0,.2-.09.14-3.34-2.54-6.76-5-10.26-7.32A29.59,29.59,0,0,0,220,162.56c-2.19-.45-4.4-.72-6.61-1C213.37,161.56,213.37,161.5,213.41,161.5Z" style="fill:#263238"></path><path d="M216.41,155.8c3.6.14,6.75.25,10.15,1.6A50.73,50.73,0,0,1,237.32,164c1.8,1.38,3.55,2.81,5.28,4.28.08.06,0,.18-.1.12a117.35,117.35,0,0,0-12.38-8.77,23.49,23.49,0,0,0-6.59-2.89,42.65,42.65,0,0,0-7.12-.89S216.39,155.8,216.41,155.8Z" style="fill:#263238"></path><path d="M176.42,156.55c-4.6,1.49-7.87,4.75-11.18,8.17,2.1-4.22,6.22-8.09,11.18-8.17Z" style="fill:#263238"></path><path d="M144.43,151.44l25.06-6.31s-18.94-21.19-26.27-25.85c-8.24-5.25-9.12.12-7.18,9.2S144.43,151.44,144.43,151.44Z" style="fill:#E6D7C0"></path><path d="M144,147c.84-.34,8.63-2.38,10.33-2.78s8.66-2.13,10.45-2.4a.07.07,0,0,1,0,.13c-1.71.6-8.71,2.35-10.44,2.8s-9.48,2.29-10.36,2.37C143.93,147.16,143.92,147.06,144,147Z" style="fill:#263238"></path><path d="M164.78,146.31l-20.36,5.13s-6.44-13.88-8.39-23c-1.26-5.92-1.32-10.27,1.07-11.12Z" style="opacity:0.1"></path><path d="M97.8,442.85c-2.39-.87-56.27-43.74-57.28-46.68-.41-1.11,41.1-53.74,41.1-53.74l33.08,27L88,404.67s13.28,25.64,14.06,29S100.18,443.72,97.8,442.85Z" style="fill:#d3766a"></path><path d="M93.36,414.78c-.1-.15-.15-.25-.12-.29S93.29,414.59,93.36,414.78Z" style="fill:#E6D7C0"></path><path d="M97.91,443.9C95.49,443,41,399.21,40,396.23c-.39-1.13,5.54-10.19,13.75-18.88l35.11,28.27s12.69,25.56,13.46,28.95S100.32,444.79,97.91,443.9Z" style="fill:#E6D7C0"></path><path d="M98.88,441.09c-9-7.57-45.8-37.23-55.23-44-.07-.06-.11,0,0,.06,8.71,7.69,45.79,37.06,55.15,44.12C99,441.39,99.06,441.25,98.88,441.09Z" style="fill:#263238"></path><path d="M100.35,429.8a9.42,9.42,0,0,0-7.26-2.16,9.13,9.13,0,0,0-6,3.23c0,.06.05.14.11.09a10.88,10.88,0,0,1,13-1C100.33,430,100.42,429.86,100.35,429.8Z" style="fill:#263238"></path><path d="M91,408.84c-3.62-3-8.89-5.11-13.57-3.94-.18,0-.11.3,0,.33a64.6,64.6,0,0,1,13.23,4.11A.3.3,0,0,0,91,408.84Z" style="fill:#263238"></path><path d="M92.89,412.21c-3.62-3-8.89-5.11-13.57-3.94-.18,0-.11.3,0,.33a64.79,64.79,0,0,1,13.23,4.11A.3.3,0,0,0,92.89,412.21Z" style="fill:#263238"></path><path d="M94.83,415.58c-3.62-3-8.9-5.11-13.57-3.94-.18,0-.12.3,0,.33a64.79,64.79,0,0,1,13.23,4.11A.3.3,0,0,0,94.83,415.58Z" style="fill:#263238"></path><path d="M96.77,418.94c-3.62-3-8.9-5.1-13.57-3.93-.18,0-.12.3,0,.33a65,65,0,0,1,13.23,4.1A.3.3,0,0,0,96.77,418.94Z" style="fill:#263238"></path><path d="M53,390.25c-4.11-3.28-9.22,3.1-5.1,6.39S57.07,393.54,53,390.25Z" style="fill:#fff"></path><path d="M102.74,402.25c-.62-3-4.15-3.39-6.58-2.71a24.49,24.49,0,0,0-10.83,6.68.12.12,0,0,0,0,.19.58.58,0,0,0,.42.83c4,.29,8.34,1.1,12.36.14C100.49,406.82,103.33,405.11,102.74,402.25ZM92,406.42c-2-.09-4-.28-6-.3a73.2,73.2,0,0,1,6.41-3.77A26.14,26.14,0,0,1,95.77,401c1.76-.57,7.81-.74,5,3.53C99.18,406.84,94.39,406.54,92,406.42Z" style="fill:#263238"></path><path d="M75.15,400.27c2.79,3.05,6.81,4.78,10.33,6.81a.57.57,0,0,0,.81-.44.13.13,0,0,0,.13-.15,24.66,24.66,0,0,0-5.23-11.61c-1.63-1.91-4.77-3.58-7-1.43S73.52,398.5,75.15,400.27Zm-.53-3.85c0-5.13,4.95-1.6,6.1-.14a27.45,27.45,0,0,1,2,3c1.25,2.15,2.17,4.45,3.2,6.71-1.67-1.1-3.41-2.05-5.12-3.09C78.74,401.68,74.59,399.24,74.62,396.42Z" style="fill:#263238"></path><path d="M64.49,364.29l34.17,27.35s56.55-66.73,58.62-76.75c2.36-11.39,8.91-100.62,8.76-105.07-.19-5.39-6.13-29.09-6.13-29.09H117.55S111.63,297.42,110.4,301C109.07,304.92,64.49,364.29,64.49,364.29Z" style="fill:#E6D7C0"></path><path d="M102,382.79c-5.46-5.27-26.76-22.19-29.41-23.57-.06,0-.14.07-.1.12,1.93,2.28,20.05,17.17,29.37,23.62C102,383,102.09,382.87,102,382.79Z" style="fill:#263238"></path><path d="M162,198.27a13.35,13.35,0,0,0-1.72-.4,11.51,11.51,0,0,1-1.79-.68,13.32,13.32,0,0,1-3.26-2.32,12.2,12.2,0,0,1-2.51-4c-.37-.85-2.1-5.4-2.12-5.43s-.17,0-.15.07c.12.63,1.3,4.55,1.65,5.53a12.86,12.86,0,0,0,2.62,4.69,10.48,10.48,0,0,0,3.62,2.44,8.09,8.09,0,0,0,1.94.52,3.13,3.13,0,0,0,1.77-.11C162.15,198.51,162.09,198.31,162,198.27Z" style="fill:#263238"></path><path d="M124.54,182.8l-.89,23.43-1,23.43-2.26,46.85c-.42,7.81-.84,15.61-1.33,23.42,0,1-.13,2-.23,3a1.35,1.35,0,0,1-.09.45,2.55,2.55,0,0,1-.19.37l-.39.66c-.28.42-.56.82-.84,1.22-1.13,1.61-2.31,3.17-3.49,4.73-2.37,3.12-4.8,6.18-7.23,9.24q-7.32,9.18-14.73,18.26L76.92,355.91l14.57-18.38c4.85-6.13,9.71-12.25,14.5-18.42q3.6-4.64,7.14-9.3c1.18-1.56,2.34-3.12,3.46-4.71q.42-.6.81-1.2c.23-.41.56-.81.54-1.15.08-.94.16-1.89.21-2.88.46-7.79.84-15.6,1.24-23.41l2.47-46.84,1.29-23.41Z" style="fill:#263238"></path><path d="M158.13,308.67c-.31,2.88-.59,5-.85,6.22-1.16,5.63-19.51,29.14-35.37,48.68L111,295.16c1.94-24.28,6.52-114.44,6.52-114.44h21.11Z" style="fill:#263238"></path><path d="M217.55,441.52c-2.22,1.22-70,13.41-72.87,12.23-1.1-.43-13.24-66.35-13.24-66.35l42.09-7,8.88,43.34s28,6.94,31.05,8.56S219.78,440.31,217.55,441.52Z" style="fill:#d3766a"></path><path d="M193.55,426.33c-.19,0-.29-.05-.31-.1Z" style="fill:#E6D7C0"></path><path d="M218.73,441.74c-2.27,1.22-71.15,13.21-74.06,12-1.11-.45-4-10.89-5.09-22.8L184,423.27s27.57,7.37,30.63,9S221,440.51,218.73,441.74Z" style="fill:#E6D7C0"></path><path d="M217.26,439.16c-11.59,1.72-58.2,9.78-69.53,12.36-.09,0-.08.09,0,.08,11.53-1.46,58.07-9.9,69.56-12.26C217.54,439.29,217.51,439.12,217.26,439.16Z" style="fill:#263238"></path><path d="M209.76,430.59a9.44,9.44,0,0,0-6.42,4,9.19,9.19,0,0,0-1.51,6.62c0,.07.15,0,.14,0a10.89,10.89,0,0,1,7.81-10.46A.08.08,0,0,0,209.76,430.59Z" style="fill:#263238"></path><path d="M187.82,423.8c-4.64.74-9.71,3.3-11.92,7.58-.09.17.15.29.27.19A65.56,65.56,0,0,1,188,424.35.29.29,0,0,0,187.82,423.8Z" style="fill:#263238"></path><path d="M191.63,424.57c-4.64.74-9.71,3.3-11.92,7.58-.09.17.15.29.27.19a65.56,65.56,0,0,1,11.83-7.22A.29.29,0,0,0,191.63,424.57Z" style="fill:#263238"></path><path d="M195.44,425.34c-4.64.74-9.71,3.3-11.92,7.58-.09.17.15.29.27.19a65.56,65.56,0,0,1,11.83-7.22A.29.29,0,0,0,195.44,425.34Z" style="fill:#263238"></path><path d="M199.25,426.11c-4.64.74-9.71,3.3-11.92,7.58-.09.17.15.29.27.19a65.21,65.21,0,0,1,11.83-7.22A.29.29,0,0,0,199.25,426.11Z" style="fill:#263238"></path><path d="M148.76,440c-5.18.92-3.76,9,1.43,8.06S154,439.13,148.76,440Z" style="fill:#fff"></path><path d="M190.67,410.6c-2.68-1.53-5.3.87-6.39,3.14a24.55,24.55,0,0,0-2.14,12.55c0,.1.09.12.16.11a.57.57,0,0,0,.9.22c2.89-2.85,6.34-5.53,8.28-9.18C192.61,415.3,193.2,412.05,190.67,410.6Zm-4,10.81c-1.39,1.43-2.85,2.79-4.18,4.28a72.32,72.32,0,0,1,1.41-7.3,25.31,25.31,0,0,1,1.15-3.41c.73-1.71,4.6-6.36,5.93-1.41C191.76,416.3,188.36,419.7,186.71,421.41Z" style="fill:#263238"></path><path d="M171,430c4.13-.08,8.09-1.95,11.93-3.25a.57.57,0,0,0,.2-.9c0-.06.07-.15,0-.2a24.52,24.52,0,0,0-12.17-3.74c-2.51-.05-5.84,1.21-5.68,4.29C165.37,429.11,168.54,430.05,171,430Zm-3.24-2.15c-3.82-3.42,2.07-4.77,3.92-4.66a26.92,26.92,0,0,1,3.57.51,71.73,71.73,0,0,1,7.15,2c-1.93.52-3.8,1.2-5.7,1.8C174.37,428.24,169.81,429.74,167.71,427.85Z" style="fill:#263238"></path><path d="M151.48,180.73s-1.11,18.11-6.11,31c0,0-7.21,4.49-8,5.2l42.91,193.34-44,8.56S119,325.17,117.55,318.75c-2.36-10.31-21-98-21.87-102.94-1.73-10.42,7.89-35.08,7.89-35.08Z" style="fill:#E6D7C0"></path><path d="M175.83,400.62c-12.1,1.81-35.24,6.72-38.09,7.9-.06,0,0,.15,0,.15,3.09-.05,31.28-5.64,38.11-7.83A.11.11,0,0,0,175.83,400.62Z" style="fill:#263238"></path><path d="M109,198.28a27.21,27.21,0,0,1,2.72-.25,20.48,20.48,0,0,0,2.79-.53,20,20,0,0,0,5-2,10.7,10.7,0,0,0,3.64-3.86c.51-.83,2.85-5.28,2.88-5.31s.28,0,.25.08a58,58,0,0,1-2.13,5.46,10.47,10.47,0,0,1-3.75,4.52,16.53,16.53,0,0,1-5.55,2.13,17.6,17.6,0,0,1-3.06.35,8,8,0,0,1-2.84-.27C108.77,198.5,108.86,198.31,109,198.28Z" style="fill:#263238"></path><path d="M146.42,211.25a73,73,0,0,0-11.6,5.28.13.13,0,0,0,.1.24c3.91-1.64,7.89-3.2,11.7-5.05A.26.26,0,0,0,146.42,211.25Z" style="fill:#263238"></path><path d="M147.9,184.56c0-.13-.25-.17-.25,0a129.41,129.41,0,0,1-.77,13c-.2,2-1.91,13.06-5.38,12.22-.58-.14-.87-.71-1-1.59a13.56,13.56,0,0,1,.5-3.39c.4-2.32.73-4.64,1-7a63.13,63.13,0,0,0,0-13.11.11.11,0,0,0-.22,0,120.19,120.19,0,0,1-1.22,18.08c-.47,2.88-2,7.2,1.05,7.67s5.12-6.76,5.51-8.75A66.5,66.5,0,0,0,147.9,184.56Z" style="fill:#263238"></path><path d="M141.59,210.06a18.82,18.82,0,0,0-.8,2.29,5.13,5.13,0,0,0-.34,1.89c0,.12.17.13.24,0a6.57,6.57,0,0,0,.82-1.83c.27-.71.56-1.41.81-2.12A.39.39,0,0,0,141.59,210.06Z" style="fill:#263238"></path><path d="M107.17,180.73q-1.8,6.89-3.37,13.83c-1,4.63-2,9.28-2.59,14l-.16,1.76c0,.59,0,1.17,0,1.75l.52,3.49,1.32,7,2.84,14,11.63,55.75L129,348l5.78,27.88,5.71,27.9-6.19-27.8-6.06-27.82-11.87-55.7c-3.84-18.59-7.72-37.18-11.4-55.8l-2.7-14-1.26-7-.49-3.56a30.64,30.64,0,0,1,.26-3.59c.67-4.72,1.73-9.35,2.83-14S105.89,185.3,107.17,180.73Z" style="fill:#263238"></path><path d="M140.14,81.06c2.58-1.89,8.51-15.69-3.33-22.37-11.66-6.57-25.9,8.52-17.34,19.67C125.23,85.85,134.65,85.07,140.14,81.06Z" style="fill:#263238"></path><path d="M162.18,185.41l-1.89-17.75s7.05-11,3.68-19.33c-1.69-4.21-13.74-25-20.51-30.43-6.35-5.11-16.64-.9-19.91,3.11-9.41,11.52-14.54,22.65-21.39,61.44Z" style="fill:#E6D7C0"></path><path d="M149,164a62.26,62.26,0,0,0-9,1.11c-1.47.32-2.92.7-4.37,1.11-.72.21-1.45.39-2.18.57a9.64,9.64,0,0,1-2.33.34c-.07,0-.07.1,0,.11a16.57,16.57,0,0,0,2.23.05,15.43,15.43,0,0,0,2.13-.32c1.5-.3,3-.68,4.48-1,3-.64,6-1.29,9.09-1.72A.13.13,0,0,0,149,164Z" style="fill:#263238"></path><path d="M156.32,167a67,67,0,0,0-7.48-.66c-1.25,0-2.49,0-3.74.07-.6,0-1.2.08-1.79.13s-1.31.2-2,.25c-.07,0-.07.11,0,.1.62,0,1.24.05,1.86.06l1.87,0c1.25,0,2.5.05,3.75.06,2.5,0,5,.06,7.48.16C156.45,167.23,156.44,167,156.32,167Z" style="fill:#263238"></path><path d="M122.69,123c-20.36,15.77-40.62,45.14-37.45,53.46,3.53,9.26,26.58-7.39,26.68-8.9.08-1.13,11-20.61,18.81-38.82C137.94,111.9,127.73,119.08,122.69,123Z" style="fill:#d3766a"></path><path d="M123.55,151.27l-24.84-7.14s19.64-20.55,27.12-25c8.41-5,9.11.42,6.87,9.44S123.55,151.27,123.55,151.27Z" style="fill:#E6D7C0"></path><path d="M124.14,146.88c-.82-.37-8.55-2.67-10.24-3.13s-8.57-2.41-10.35-2.74a.06.06,0,0,0,0,.12c1.68.66,8.62,2.65,10.33,3.15s9.4,2.6,10.28,2.72C124.19,147,124.19,146.9,124.14,146.88Z" style="fill:#263238"></path><path d="M120.52,150.4c1,.2,2.06.44,3.08.68l-.23.1,3.79-8.25c1.13-2.42,2.7-5.86,3.86-8.23a83.46,83.46,0,0,1-7.29,16.67l-.09.15c-1-.36-2.09-.72-3.12-1.12Z" style="fill:#263238"></path><path d="M128.38,141.09a32.55,32.55,0,0,1,2.79-3.18,5.32,5.32,0,0,1-2.79,3.18Z" style="fill:#263238"></path><path d="M86.27,177.92C88.73,182.07,97,187,125,189.07c3.89.29,11.35-27.65,7.21-28.16-5.21-.65-22.73-1.13-24.22-1C96.89,161.18,83.82,173.77,86.27,177.92Z" style="fill:#d3766a"></path><path d="M122.7,161.69s10.61-.87,17.72-.85c4,0,10.76.62,13.67,2,4.36,2,21.29,13.15,18.68,17.32-2.37,3.77-15.7-7.66-15.7-7.66s14.47,10.34,10.78,14.36-17-10.9-17-10.9,14.63,11,10.18,14.49c-3.37,2.68-16.22-10.15-16.22-10.15s12.51,9.51,9.17,12.41c-3.69,3.2-16.3-7.9-16.3-7.9-9.74,5.94-16.8,4.78-21.73,3.36C114.72,187.79,122.7,161.69,122.7,161.69Z" style="fill:#d3766a"></path><path d="M152.29,168.56c1.75,1.16,3.52,2.31,5.15,3.62s3.23,2.66,4.74,4.11a35.5,35.5,0,0,1,5.32,6.21c-3-3.82-8.79-8.58-10.43-9.89s-3.2-2.68-4.83-4C152.2,168.59,152.25,168.53,152.29,168.56Z" style="fill:#263238"></path><path d="M147.47,174.38c2.17,1.57,4.37,3.05,6.47,4.71s3.91,3.42,5.88,5.21c.15.14,0,.18-.13,0-2-1.71-4.05-3.14-6.11-4.84s-4-3.46-6.15-5.07A0,0,0,0,1,147.47,174.38Z" style="fill:#263238"></path><path d="M142.44,178.63a60,60,0,0,1,9.33,8c.15.15,0,.18-.18,0-3.05-2.71-5.42-4.85-9.23-7.88C142.3,178.7,142.37,178.59,142.44,178.63Z" style="fill:#263238"></path><path d="M137,160.89a90.91,90.91,0,0,1,14,.72,11.35,11.35,0,0,1,3.39,1.07,69.33,69.33,0,0,1,9,5.52c2.6,2,13,9.1,9.12,12.69-2.72,1.8-8.3-2.33-10.45-4.06l.27-.31c2.25,2.34,5.08,4.68,6.07,7.85-1.12-3.13-4.05-5.27-6.34-7.54l.27-.31c2,1.56,7.31,5.23,9.76,3.87,3.1-3-6.92-9.88-9.12-11.62-3.75-2.48-7.6-5.66-12-6.65A110.78,110.78,0,0,0,137,160.89Z" style="fill:#263238"></path><path d="M128.86,160.56c-2.57,0-5.13-.13-7.7-.2s-5.12-.19-7.68-.19a31.59,31.59,0,0,0-7.59.49,66.84,66.84,0,0,0-7.43,1.89,39.87,39.87,0,0,1,7.3-2.52,30.05,30.05,0,0,1,7.73-.69c2.58.07,5.15.18,7.71.39S126.32,160.19,128.86,160.56Z" style="fill:#263238"></path><path d="M132.16,118.45c.15,1.14,15,20.11,18.48,20.32,1.94.12-6.16-19-6.16-19l3.27-9.91-11.92-9.33S132.1,118,132.16,118.45Z" style="fill:#d3766a"></path><path d="M134.46,107a19.92,19.92,0,0,0,10.2,12.16l3.09-9.36-11.92-9.33Z" style="fill:#263238"></path><path d="M162.13,95.14c1,17.06-9.07,19.61-12.75,19.83-3.34.2-14.74.45-17.54-16.41S136.65,75.81,144.27,75,161.09,78.07,162.13,95.14Z" style="fill:#d3766a"></path><path d="M158.52,92a11.3,11.3,0,0,1-1.16-.22,1.86,1.86,0,0,1-1.14-.45.6.6,0,0,1,0-.74,1.53,1.53,0,0,1,1.48-.39,2.23,2.23,0,0,1,1.41.75A.66.66,0,0,1,158.52,92Z" style="fill:#263238"></path><path d="M147.16,92.37c.4-.06.76-.18,1.15-.27a1.92,1.92,0,0,0,1.12-.5.62.62,0,0,0,0-.75,1.51,1.51,0,0,0-1.49-.31,2.2,2.2,0,0,0-1.37.82A.64.64,0,0,0,147.16,92.37Z" style="fill:#263238"></path><path d="M149.71,96.63s-.09.06-.08.11c.09,1.16,0,2.5-1,2.94,0,0,0,.07,0,.06C149.88,99.5,150,97.72,149.71,96.63Z" style="fill:#263238"></path><path d="M148.62,95.46c-1.88,0-1.85,3.71-.11,3.76S150.19,95.51,148.62,95.46Z" style="fill:#263238"></path><path d="M147.88,95.67c-.33.21-.65.59-1,.64s-.81-.35-1.11-.72c0,0-.06,0-.06,0,0,.72.27,1.46,1.05,1.56s1.2-.55,1.38-1.28C148.13,95.78,148,95.58,147.88,95.67Z" style="fill:#263238"></path><path d="M156.37,96.33s.09.06.09.1c0,1.17.12,2.51,1.17,2.89,0,0,0,.07,0,.07C156.33,99.21,156.15,97.43,156.37,96.33Z" style="fill:#263238"></path><path d="M157.41,95.11c1.87-.14,2,3.62.28,3.75S155.84,95.24,157.41,95.11Z" style="fill:#263238"></path><path d="M158.2,95.33c.3.19.61.54,1,.55s.7-.41.94-.81c0,0,.06,0,.06,0,.05.72-.15,1.47-.84,1.64s-1.11-.45-1.31-1.16C158,95.46,158.08,95.26,158.2,95.33Z" style="fill:#263238"></path><path d="M149.85,106.2c.26.29.5.69.92.76a2.92,2.92,0,0,0,1.27-.19,0,0,0,0,1,.05.07,1.57,1.57,0,0,1-1.53.5,1.23,1.23,0,0,1-.82-1.1C149.72,106.17,149.82,106.16,149.85,106.2Z" style="fill:#263238"></path><path d="M154.83,102.12s.19,1.74.17,2.56c0,.08-.2.11-.48.12,0,0,0,0,0,0a3.9,3.9,0,0,1-3.75-1.56c-.05-.08,0-.16.13-.11a5.86,5.86,0,0,0,3.53,1.12c.06-.23-.43-3-.3-3a7.86,7.86,0,0,1,1.85.47c-.3-3.64-1.18-7.21-1.43-10.84a.11.11,0,0,1,.22,0,59.32,59.32,0,0,1,2,11.62C156.83,102.93,155.15,102.27,154.83,102.12Z" style="fill:#263238"></path><path d="M154,104.63a4.29,4.29,0,0,1-1.68,1.33,2,2,0,0,1-1.16.08c-.84-.21-.86-1-.71-1.64a4.59,4.59,0,0,1,.36-1A5.46,5.46,0,0,0,154,104.63Z" style="fill:#263238"></path><path d="M152.36,106a2,2,0,0,1-1.16.08c-.84-.21-.86-1-.71-1.64A2,2,0,0,1,152.36,106Z" style="fill:#ff9bbc"></path><path d="M151.2,78.3a7.63,7.63,0,0,1-.21,4.46c-1.84,3.85-6.46,2.83-8,4.35s-1,4.38-2.3,5.81c-1.86,2-4.38,1.2-4.69,2.54s-1.19,5.56-2.88,6.1-9.42-27.66,12.65-26.74c0,0,3-1.24,7.73,1.14,5.19,2.64,7.44,11.21,7.44,11.21s-.12-.12-.87-.79c-1.06-.94-1.48-1.82-2.26-2.43-1.22-1-1.89-.6-3.17-1.54A14.64,14.64,0,0,1,151.2,78.3Z" style="fill:#263238"></path><path d="M150.86,77.07a14.61,14.61,0,0,1,.65,3.39,6.33,6.33,0,0,1-.48,3.3,4.52,4.52,0,0,1-2.53,2c-1.05.39-2.21.5-3.34,1a3.5,3.5,0,0,0-1.48,1.12,4.67,4.67,0,0,0-.65,1.7,6,6,0,0,1-1.23,3.07,3.8,3.8,0,0,1-3,1.24c-1.11,0-2.34-.31-3.42.18,1.12-.4,2.25,0,3.42.09a4.17,4.17,0,0,0,3.27-1.22,6.2,6.2,0,0,0,1.4-3.25,4.3,4.3,0,0,1,.59-1.51,3,3,0,0,1,1.27-.91c1-.43,2.19-.57,3.3-1a5.85,5.85,0,0,0,1.57-.86A3.59,3.59,0,0,0,151.41,84a6.55,6.55,0,0,0,.36-3.52A14.91,14.91,0,0,0,150.86,77.07Z" style="fill:#263238"></path><path d="M151.29,78.08a12.08,12.08,0,0,0,1.06,3.06,5.76,5.76,0,0,0,2.22,2.45,8.48,8.48,0,0,0,1.52.59,2.66,2.66,0,0,1,1.19.81,8.28,8.28,0,0,0,1,1.31,3.7,3.7,0,0,0,1.4.82,4,4,0,0,1-1.2-1,8.57,8.57,0,0,1-.81-1.36,2.77,2.77,0,0,0-1.36-1.06,8.17,8.17,0,0,1-1.44-.59,6,6,0,0,1-2.09-2.19A23,23,0,0,1,151.29,78.08Z" style="fill:#263238"></path><path d="M135.2,99.51s-3.87-5.24-6.26-3.84.62,9,3.49,10a2.89,2.89,0,0,0,3.83-1.65Z" style="fill:#d3766a"></path><path d="M129.86,97.84a0,0,0,0,0,0,.08c2,.75,3.12,2.57,3.9,4.47a1.6,1.6,0,0,0-2.4-.38c-.05,0,0,.12.06.11a1.77,1.77,0,0,1,2,.57,8.36,8.36,0,0,1,1,1.56c.1.17.42.07.34-.14,0,0,0,0,0,0C134.66,101.53,132.59,98,129.86,97.84Z" style="fill:#263238"></path><polygon points="132.16 118.44 150.63 138.77 144.48 119.73 151.88 126.76 149.46 128.25 152.7 131.25 152.07 141.73 138.59 133.61 140.09 129.68 134.73 129.41 132.16 118.44" style="fill:#E6D7C0"></polygon><polygon points="132.16 118.44 150.63 138.77 144.48 119.73 151.88 126.76 149.46 128.25 152.7 131.25 152.07 141.73 138.59 133.61 140.09 129.68 134.73 129.41 132.16 118.44" style="fill:#fff;opacity:0.5"></polygon></g><g id="freepik--character-2--inject-21"><path d="M206,375.57c0-42,27.38-76.17,61-76.17s61,34.17,61,76.17-27.38,76.17-61,76.17S206,417.57,206,375.57Zm6.11,0c0,38.63,24.64,70.06,54.92,70.06s54.92-31.43,54.92-70.06S297.26,305.51,267,305.51,212.06,336.94,212.06,375.57Z" style="fill:#263238"></path><path d="M208.17,375.57c0-37.23,24.22-67.52,54-67.52s54,30.29,54,67.52-24.21,67.52-54,67.52S208.17,412.8,208.17,375.57Zm4.37,0c0,34.83,22.26,63.16,49.62,63.16s49.63-28.33,49.63-63.16-22.26-63.16-49.63-63.16S212.54,340.74,212.54,375.57Z" style="fill:#c7c7c7"></path><path d="M255.49,375.57c0,6.1,3.92,11,8.75,11s8.76-4.94,8.76-11-3.92-11-8.76-11S255.49,369.47,255.49,375.57Z" style="fill:#c7c7c7"></path><ellipse cx="261.44" cy="375.57" rx="8.75" ry="11.04" style="fill:#dbdbdb"></ellipse><rect x="182.18" y="373.39" width="79.26" height="4.36" style="fill:#c7c7c7"></rect><path d="M341.86,439.47c0,7.93,5.1,14.36,11.39,14.36s11.38-6.43,11.38-14.36-5.1-14.36-11.38-14.36S341.86,431.54,341.86,439.47Z" style="fill:#c7c7c7"></path><ellipse cx="349.6" cy="439.47" rx="11.39" ry="14.36" style="fill:#dbdbdb"></ellipse><rect x="261.14" y="274.41" width="90.18" height="34.82" transform="translate(612.46 583.63) rotate(180)" style="fill:#a6a6a6"></rect><path d="M275.76,393h75.56v-4.37H275.76a12.41,12.41,0,0,1-12.4-12.39V197a16.78,16.78,0,0,0-16.76-16.76H236.42v4.36H246.6A12.41,12.41,0,0,1,259,197V376.22A16.78,16.78,0,0,0,275.76,393Z" style="fill:#c7c7c7"></path><path d="M349.14,425.11h4.36V253.21a15.11,15.11,0,0,0-15.09-15.09H261.18v4.36h77.23a10.74,10.74,0,0,1,10.73,10.73Z" style="fill:#c7c7c7"></path><rect x="222.91" y="177.97" width="27.03" height="8.67" transform="translate(472.84 364.61) rotate(180)" style="fill:#263238"></rect><rect x="182.18" y="196.91" width="77.05" height="105.54" transform="translate(441.4 499.36) rotate(180)" style="fill:#263238"></rect><path d="M252.28,166.32c-4.54,24.33-2.9,58,2.21,63.61,6.42,7,21.81-20.87,20.92-22-.67-.87-5.8-24.18-11.16-40.18C258.67,151.07,253.4,160.3,252.28,166.32Z" style="fill:#f7a9a0"></path><path d="M253.47,228.35c2.8,6.26,12.37,7.83,42.42,10.51,4.16.37,14.67-28.27,10.25-28.89-5.56-.79-29.71-3.49-31.32-3.43C261.24,207.1,251.36,223.63,253.47,228.35Z" style="fill:#f7a9a0"></path><path d="M274.82,206.54c-6.08,1-11.29,4.26-15.83,8.31,3.53-5.06,9.53-8.69,15.83-8.31Z" style="fill:#263238"></path><path d="M291.27,238.26a92.14,92.14,0,0,0,11.8,5.49c3.23,1.06,12.63,3.85,14.15.4,1-2.35-4.3-4.64-8-6.35-2-.9-4.36-3.07-3.73-4.33,1.11-2.21,6.17.22,9.48,2.29,6.41,4,14.88,11.15,19,8,1.55-1.21-.12-3.55-2.61-5.87,4.07,2.75,8.43,5,10.21,3.77,1-.72,1.09-1.76.58-3a2.92,2.92,0,0,0,3.23-.39c1.4-1.37.81-3.48-.6-5.67a1.63,1.63,0,0,0,1.26-.77c3-4.27-10.9-17.28-15.81-18.62a125.57,125.57,0,0,0-29.84-3.82C294.46,213.78,291.26,238.25,291.27,238.26Z" style="fill:#f7a9a0"></path><path d="M313.16,225.56a24.81,24.81,0,0,1,9.59,4.07c3.62,2.57,6,5.5,9,8.48.08.08,0,.21-.12.13-1.43-1.42-7.38-6.76-8.93-8a23.54,23.54,0,0,0-9.54-4.64S313.12,225.56,313.16,225.56Z" style="fill:#263238"></path><path d="M316.08,219.47a59.1,59.1,0,0,1,11.18,4.3c3.83,2.11,6.76,5.45,9.65,8.66,1.74,1.93,3.43,3.89,5.08,5.9.07.08-.05.21-.12.13q-4.39-5-9.09-9.68a31,31,0,0,0-10.09-6.85c-2.17-.91-4.4-1.65-6.62-2.39C316,219.52,316,219.46,316.08,219.47Z" style="fill:#263238"></path><path d="M320.36,214.2c3.69.89,6.92,1.65,10.15,3.76,4.27,2.78,8.33,7.38,9.76,9,1.57,1.8,3.08,3.65,4.57,5.52.06.08-.07.18-.13.11a123.16,123.16,0,0,0-11-11.63,24.6,24.6,0,0,0-6.21-4.34,44.07,44.07,0,0,0-7.17-2.4S320.34,214.19,320.36,214.2Z" style="fill:#263238"></path><path d="M244.73,200.84l26.67-14s-3.63-14.69-6.79-22.54c-4.17-10.39-9-11.28-13.54,1.68C248,174.64,244.73,200.84,244.73,200.84Z" style="fill:#E6D7C0"></path><g style="opacity:0.5"><path d="M244.73,200.84l26.67-14s-3.63-14.69-6.79-22.54c-4.17-10.39-9-11.28-13.54,1.68C248,174.64,244.73,200.84,244.73,200.84Z" style="fill:#fff"></path></g><path d="M246.11,196.89c3.74-2.31,7.5-4.56,11.37-6.64q2.89-1.56,5.84-3c2-1,4-1.76,6-2.76.11-.06.19.12.08.17-2,.9-3.87,2.08-5.81,3.09s-3.89,2-5.82,3.07c-3.86,2.06-7.73,4.12-11.54,6.27C246.08,197.12,246,197,246.11,196.89Z" style="fill:#263238"></path><path d="M254.75,174a10.21,10.21,0,0,0-2.82-.68,10.19,10.19,0,0,0,2.55,1.38,10.31,10.31,0,0,0,2.82.69A10.23,10.23,0,0,0,254.75,174ZM268,182.57a10.5,10.5,0,0,0-1.51-2.47,10.5,10.5,0,0,0,.82,2.78,10.63,10.63,0,0,0,1.51,2.48A10.35,10.35,0,0,0,268,182.57Zm-16.16,6.67a10.11,10.11,0,0,0-2.48,1.51,10.47,10.47,0,0,0,2.79-.83,10.06,10.06,0,0,0,2.47-1.51A10.05,10.05,0,0,0,251.83,189.24Z" style="fill:#fff"></path><path d="M267.65,188.8l-22.92,12s3.31-26.2,6.34-34.87c2.32-6.65,4.73-9.64,7.08-9.6Z" style="opacity:0.1"></path><path d="M257.46,220.59l6.76,19.88s64.86,10.69,79.28,26.82c21,23.48,65.25,103.56,65.25,103.56L370.4,398.29s-54.95-89.74-60.46-97.24S223.9,286.16,209,274.6s-4.56-54-4.56-54Z" style="fill:#f7a9a0"></path><path d="M454.68,390.14c-1.87,1.85-67.88,33.77-71.09,33.39-.37,0-9-13.31-9-13.31-2.54-5.15-26.79-43.31-26.79-43.31l45.91-26.63,21.6,42.23s10.71-.63,20.26-.73c0,0,0,0,0,0,5.89-.07,11,0,12.37.26C451.43,382.83,456.56,388.31,454.68,390.14Z" style="fill:#ebebeb"></path><path d="M363.44,392.15l-4.84-8s19.68-3.91,35.92-12.6c0,0-7.52,18.74-14,20.56S363.44,392.15,363.44,392.15Z" style="fill:#ebebeb"></path><path d="M363.44,392.15l-5-7.85-.15-.24c3.18-.74,6.36-1.56,9.5-2.48a145.31,145.31,0,0,0,27.71-11l-.51,1.23c-2.89,6.52-5.84,13.17-10.82,18.4-2.52,2.84-6.59,3-10.12,3a59.78,59.78,0,0,1-10.6-1Zm0,0a64.72,64.72,0,0,0,10.59.57c3.4-.18,7.23-.27,9.6-3.07,4.7-5.2,7.69-11.84,10.44-18.24l.68.61a118.21,118.21,0,0,1-17.63,7.45,147.13,147.13,0,0,1-18.48,4.93l.14-.31,4.66,8.06Z" style="fill:#dbdbdb"></path><path d="M403.64,358.17l7.53,13.76s-15.06,20-23.13,23.88S370,403.55,370,403.55l-7.43-11.4s13.88-4.51,20.87-9.68S403.64,358.17,403.64,358.17Z" style="fill:#ebebeb"></path><path d="M403.64,358.17l7.72,13.66.08.12-.09.12c-2.65,3.56-5.43,7-8.3,10.38-4.42,5-8.75,10.27-14.59,13.64-6,2.93-12.12,5.46-18.3,7.93l-.38.15-.22-.34-7.4-11.42-.33-.51a123.42,123.42,0,0,0,13.26-5.18c4.1-1.94,8.17-4.05,11.31-7.35,6.36-6.51,11.83-13.88,17.24-21.2Zm0,0c-5.16,7.54-10.46,15-16.78,21.67-3.15,3.38-7.27,5.69-11.41,7.65a121.15,121.15,0,0,1-12.76,5.1l.25-.69,7.46,11.38-.6-.19c6.15-2.42,12.31-4.93,18.26-7.8,5.67-3.27,10.06-8.5,14.48-13.28q4.38-5,8.45-10.21l0,.24-7.33-13.87Z" style="fill:#dbdbdb"></path><path d="M415.58,381.91s10.64-.4,15.7-.4c0,0-6.19,9.57-8.23,13.33s-2,12.64-2,12.64l-20.81,9.73s2.47-14.24,5.11-18.92S415.58,381.91,415.58,381.91Z" style="fill:#ebebeb"></path><path d="M415.58,381.91c4.16-.18,12-.54,16.2-.7-2.61,4.18-5.24,8.37-7.68,12.63a13.08,13.08,0,0,0-1.43,3.15,42.48,42.48,0,0,0-1.19,10.49v.3l-.26.12c-5.18,2.45-15.62,7.33-20.82,9.72l-.8.37a126.29,126.29,0,0,1,3.54-15.13c1.34-4.73,4.43-8.74,7-12.85,1.79-2.72,3.59-5.42,5.43-8.1Zm0,0-5.12,8.3c-2.42,4.2-5.4,8.11-6.64,12.87s-2.32,9.44-3.18,14.21l-.63-.49c5.17-2.46,15.6-7.34,20.8-9.75l-.27.43c.2-4.74.26-9.91,2.83-14.06s5.07-8.08,7.68-12.06l.23.42c-3.92.05-11.79.1-15.7.13Z" style="fill:#dbdbdb"></path><path d="M327.54,328.76c-8.72-14-15.8-25.26-17.6-27.71-5.51-7.51-86.05-14.9-100.95-26.45s-4.56-54-4.56-54h53l6.76,19.88s37.37,6.16,61.69,16.19Z" style="opacity:0.1"></path><path d="M360.57,434.39c-2.5.83-75.81.36-78.52-1.39-.33-.18-.42-6.82-.41-15.89v-.18c0-5.75-1-54.89-1-54.89l46.52-.25,1.48,48.39s9.89,4.16,18.5,8.29l0,0c5.32,2.53,9.93,4.84,11,5.68C360.88,426.39,363.07,433.58,360.57,434.39Z" style="fill:#f7a9a0"></path><path d="M327.69,395.16l-46.41.11s-3.6-97.76-9.36-100.41c-9.69-4.45-47.55-3.67-69.31-19.4-17.67-12.77-3.07-54.87-3.07-54.87l46.78,0s6.41,14.84,7.48,19.34c0,0,45.25,12.44,60.87,29.57C329.51,285.79,327.69,395.16,327.69,395.16Z" style="fill:#f7a9a0"></path><path d="M313.73,425.82s6.86-10,12.21-12.26a17,17,0,0,1,10.54-.86c1.07.1,20.43,9,23,11.45s4.13,9.34,2.17,10.64-78.89,0-79.8-.42-1.56-8-1.08-8.55S313.73,425.82,313.73,425.82Z" style="fill:#E6D7C0"></path><path d="M193.43,237.09c-1.68,6.75-7,34.39,16.49,46.55s56.05,9.06,59.75,11.51,4.59,21.72,4.59,21.72,28.69-25.6,40.3-27.64,43.72-3.82,43.72-3.82-7.37-17.73-23.59-27.37c-19.91-11.83-70.47-17.57-70.47-17.57Z" style="fill:#E6D7C0"></path><path d="M193.43,237.09c-1.68,6.75-7,34.39,16.49,46.55s56.05,9.06,59.75,11.51,4.59,21.72,4.59,21.72,28.69-25.6,40.3-27.64,43.72-3.82,43.72-3.82-7.37-17.73-23.59-27.37c-19.91-11.83-70.47-17.57-70.47-17.57Z" style="fill:#fff;opacity:0.5"></path><path d="M230.09,238.84a2,2,0,0,0,0,.24c.06-.08.12-.15.17-.23Zm34.32,3.83a9.86,9.86,0,0,0-2.82-.68,10.19,10.19,0,0,0,2.55,1.38,9.86,9.86,0,0,0,2.82.68A10.53,10.53,0,0,0,264.41,242.67Zm-55.07-4.82-2.1-.1.75.32a10.21,10.21,0,0,0,2.82.68A8.28,8.28,0,0,0,209.34,237.85Zm-14,10.57a10.47,10.47,0,0,0-1.52-2.48,10.4,10.4,0,0,0,.83,2.78,9.93,9.93,0,0,0,1.51,2.48A10.28,10.28,0,0,0,195.39,248.42Zm47.35-2.8a10.43,10.43,0,0,0-2.48,1.51,11.07,11.07,0,0,0,5.26-2.34A10,10,0,0,0,242.74,245.62Zm20.48,19.25a9.54,9.54,0,0,0-.68,2.82,11.21,11.21,0,0,0,2.06-5.37A10.19,10.19,0,0,0,263.22,264.87Zm-67.36,2.49a15.16,15.16,0,0,0-.47,1.49c.09.2.19.4.29.59a11.35,11.35,0,0,0,.89-1.82,9.85,9.85,0,0,0,.67-2.82A10.41,10.41,0,0,0,195.86,267.36Zm35.47-7.86a9.88,9.88,0,0,0-.69,2.82A10.95,10.95,0,0,0,232.7,257,10.33,10.33,0,0,0,231.33,259.5Zm23.53,19.22A10.13,10.13,0,0,0,252,278a10.47,10.47,0,0,0,2.56,1.39,10.21,10.21,0,0,0,2.82.68A9.94,9.94,0,0,0,254.86,278.72Zm-2-24A10.21,10.21,0,0,0,250,254a11.09,11.09,0,0,0,5.37,2.07A10.23,10.23,0,0,0,252.82,254.7Zm-45.39,4.59a10.4,10.4,0,0,0-2.82-.69,9.68,9.68,0,0,0,2.56,1.39,10.12,10.12,0,0,0,2.82.68A10.59,10.59,0,0,0,207.43,259.29Zm12.46-9.44a10.24,10.24,0,0,0-1.51-2.48,10,10,0,0,0,.83,2.78,10.43,10.43,0,0,0,1.51,2.48A10,10,0,0,0,219.89,249.85Zm42.3,39.09a10.22,10.22,0,0,0-.69,2.82,10,10,0,0,0,1.39-2.56,10.12,10.12,0,0,0,.68-2.82A10.25,10.25,0,0,0,262.19,288.94Zm-21.72-.62a10.22,10.22,0,0,0-.69,2.82,11.09,11.09,0,0,0,2.07-5.37A10.19,10.19,0,0,0,240.47,288.32Zm-32.26-6.11a9.87,9.87,0,0,0-1.51-2.47,9.62,9.62,0,0,0,.7,2.47c.35.21.7.43,1.07.63C208.39,282.63,208.3,282.42,208.21,282.21Zm21.65-3.3a10.41,10.41,0,0,0-1.52-2.47,10.4,10.4,0,0,0,.83,2.78,9.87,9.87,0,0,0,1.51,2.47A10.5,10.5,0,0,0,229.86,278.91Zm13.43-10.39a9.91,9.91,0,0,0-2.47,1.52,10.05,10.05,0,0,0,2.78-.83,9.86,9.86,0,0,0,2.48-1.52A10.47,10.47,0,0,0,243.29,268.52ZM274,254.72a10.39,10.39,0,0,0-2.48,1.5,11.19,11.19,0,0,0,5.26-2.33A9.33,9.33,0,0,0,274,254.72ZM216.85,269a10.24,10.24,0,0,0-2.48,1.51,9.94,9.94,0,0,0,2.78-.82,10.15,10.15,0,0,0,2.48-1.52A10.4,10.4,0,0,0,216.85,269ZM317,250.82a8.69,8.69,0,0,0-.26,1.54,8.11,8.11,0,0,0,.85-1.36Zm-29.69,13.36a10.21,10.21,0,0,0-.68,2.82,9.88,9.88,0,0,0,1.38-2.55,10.21,10.21,0,0,0,.68-2.82A10.53,10.53,0,0,0,287.34,264.18Zm24.25,24.15a11.43,11.43,0,0,0-.57,2c.19-.08.38-.16.56-.22a12.34,12.34,0,0,0,.71-1.52,10.21,10.21,0,0,0,.68-2.82A10.08,10.08,0,0,0,311.59,288.33Zm22-4a10.59,10.59,0,0,0-.69,2.82,10.23,10.23,0,0,0,1.39-2.55,10.12,10.12,0,0,0,.68-2.82A10.53,10.53,0,0,0,333.58,284.31Zm-46,2.71a10.22,10.22,0,0,0-2.82-.69,9.92,9.92,0,0,0,2.55,1.39,10.21,10.21,0,0,0,2.82.68A10.19,10.19,0,0,0,287.62,287Zm-1.2-40.38a10.22,10.22,0,0,0-2.82-.69A11.09,11.09,0,0,0,289,248,9.88,9.88,0,0,0,286.42,246.64ZM310.49,264a10.4,10.4,0,0,0-2.82-.69,10.29,10.29,0,0,0,2.56,1.39,10.12,10.12,0,0,0,2.82.68A10.59,10.59,0,0,0,310.49,264ZM332,261.16a10.52,10.52,0,0,0-1.5-2.48,10.14,10.14,0,0,0,.82,2.78,10.63,10.63,0,0,0,1.51,2.48A9.85,9.85,0,0,0,332,261.16Zm-32.64,16.72a10.11,10.11,0,0,0-1.51-2.48,10.12,10.12,0,0,0,.83,2.79,9.87,9.87,0,0,0,1.51,2.47A10.05,10.05,0,0,0,299.36,277.88Zm-24.61,20.19a9.86,9.86,0,0,0-1.52-2.48,10.66,10.66,0,0,0,.83,2.78,10.27,10.27,0,0,0,1.52,2.48A10.05,10.05,0,0,0,274.75,298.07Zm72.55-25.13a10.39,10.39,0,0,0-2.48,1.5,11.19,11.19,0,0,0,5.26-2.33A10.05,10.05,0,0,0,347.3,272.94ZM300.25,252a10.11,10.11,0,0,0-2.48,1.51,10.47,10.47,0,0,0,2.79-.83,10.06,10.06,0,0,0,2.47-1.51A10.05,10.05,0,0,0,300.25,252Zm21.26,23.54a10.43,10.43,0,0,0-2.48,1.51,10.1,10.1,0,0,0,2.79-.82,10.54,10.54,0,0,0,2.48-1.52A10.36,10.36,0,0,0,321.51,275.56ZM276.05,315.3l.51-.44a2.7,2.7,0,0,0,.05-.41A6.56,6.56,0,0,0,276.05,315.3Zm7.93-7.05.25.19.16-.13A2.7,2.7,0,0,0,284,308.25ZM297.75,297a6.3,6.3,0,0,0,.2,1l.35-.25C298.13,297.5,298,297.26,297.75,297Zm58.44-14.88a10.18,10.18,0,0,0-1.51-2.47,10.15,10.15,0,0,0,.83,2.78,10.3,10.3,0,0,0,1.51,2.48A10.36,10.36,0,0,0,356.19,282.14Zm-81.34-6.58a10.43,10.43,0,0,0-2.48,1.51,10.1,10.1,0,0,0,2.79-.82,10.29,10.29,0,0,0,2.47-1.52A10.4,10.4,0,0,0,274.85,275.56Z" style="fill:#fff"></path><path d="M251.93,245.82c10.36,1.78,25.47,4,36,5.65l9,1.47c9.18,1.23,17.31,7.37,21.9,15.24-4.43-6.53-11-11.74-18.72-13.72-2.24-.53-9.93-1.61-12.33-2-12-2-24-3.82-35.86-6.64Z" style="opacity:0.1"></path><path d="M269,247.09c7.52.59,14.9,1.39,22.43,1.79A58,58,0,0,1,269,247.09Z" style="opacity:0.1"></path><path d="M264.22,240.47l-70.79-3.38c-.27-.68,18.46-63.2,47.69-82.14,5.15-3.33,14.91-.29,17.27,3.29C267.73,172.36,264.22,240.47,264.22,240.47Z" style="fill:#E6D7C0"></path><g style="opacity:0.5"><path d="M264.22,240.47l-70.79-3.38c-.27-.68,18.46-63.2,47.69-82.14,5.15-3.33,14.91-.29,17.27,3.29C267.73,172.36,264.22,240.47,264.22,240.47Z" style="fill:#fff"></path></g><path d="M245.83,160.91a10.21,10.21,0,0,0-.68,2.82,10.23,10.23,0,0,0,1.39-2.55,10.57,10.57,0,0,0,.68-2.82A10.23,10.23,0,0,0,245.83,160.91Zm-9.23,36.57a10.21,10.21,0,0,0-.68,2.82,10.95,10.95,0,0,0,2.06-5.37A10.53,10.53,0,0,0,236.6,197.48Zm-30.11,14.64a10.19,10.19,0,0,0-.68,2.83,10.47,10.47,0,0,0,1.39-2.56,10.11,10.11,0,0,0,.67-2.82A10.72,10.72,0,0,0,206.49,212.12Zm24.25,24.15a10.65,10.65,0,0,0-.65,2.57h.14a10.69,10.69,0,0,0,1.21-2.32,10.21,10.21,0,0,0,.68-2.82A10.41,10.41,0,0,0,230.74,236.27Zm22-4a10.59,10.59,0,0,0-.69,2.82,9.57,9.57,0,0,0,1.39-2.54,9.86,9.86,0,0,0,.68-2.82A10.47,10.47,0,0,0,252.73,232.25Zm-33.5-48.94a10.21,10.21,0,0,0-.68,2.82,11.36,11.36,0,0,0,2.07-5.37A9.92,9.92,0,0,0,219.23,183.31ZM254.75,174a10.21,10.21,0,0,0-2.82-.68,10.19,10.19,0,0,0,2.55,1.38,10.31,10.31,0,0,0,2.82.69A10.23,10.23,0,0,0,254.75,174Zm10,29.28-.72-.31a10.22,10.22,0,0,0-2.81-.68,9.67,9.67,0,0,0,2.54,1.38c.33.12.67.24,1,.34C264.8,203.79,264.79,203.55,264.78,203.31Zm-56.53,34.06a10.13,10.13,0,0,0-2.82-.69,8.79,8.79,0,0,0,1.81,1.07l2.1.1C209,237.67,208.62,237.52,208.25,237.37Zm21.4-25.45a9.86,9.86,0,0,0-2.83-.69,10.29,10.29,0,0,0,2.56,1.39,10.11,10.11,0,0,0,2.82.67A10.16,10.16,0,0,0,229.65,211.92Zm6.64-33.58a10.11,10.11,0,0,0-1.51-2.48,11,11,0,0,0,2.34,5.26A10.05,10.05,0,0,0,236.29,178.34Zm14.87,30.76a10.56,10.56,0,0,0-1.51-2.48,10.28,10.28,0,0,0,.82,2.78,10.43,10.43,0,0,0,1.51,2.48A10.28,10.28,0,0,0,251.16,209.1Zm-32.64,16.72a10.22,10.22,0,0,0-1.52-2.47,10.51,10.51,0,0,0,.83,2.78,9.87,9.87,0,0,0,1.51,2.47A10.39,10.39,0,0,0,218.52,225.82ZM264,222.38a5.4,5.4,0,0,0,.82-.15c0-.15,0-.3,0-.45A5.8,5.8,0,0,0,264,222.38ZM219.4,200a10.11,10.11,0,0,0-2.48,1.51,10.47,10.47,0,0,0,2.79-.83,10.06,10.06,0,0,0,2.47-1.51A10.05,10.05,0,0,0,219.4,200Zm21.26,23.54a10.47,10.47,0,0,0-2.48,1.52,11.19,11.19,0,0,0,5.27-2.35A10.36,10.36,0,0,0,240.66,223.5Zm-43.53,1.82h0l-.33.94a10.2,10.2,0,0,0,2.35-1.46A8.86,8.86,0,0,0,197.13,225.32Zm54.7-36.08a10.11,10.11,0,0,0-2.48,1.51,10.47,10.47,0,0,0,2.79-.83,10.06,10.06,0,0,0,2.47-1.51A10.05,10.05,0,0,0,251.83,189.24Z" style="fill:#fff"></path><path d="M232.46,162.13c-17.92,21-39.27,63.92-34.14,72,5.71,8.94,33.57-17.3,33.35-18.9-.16-1.2,4.66-26,10.54-44.72S236.89,157,232.46,162.13Z" style="fill:#f7a9a0"></path><path d="M198,233.5c4.1,6.41,15.92,8.07,45.27,15.05,4.06,1,18.24-27.86,14-29.12-5.4-1.58-26.34-4.54-27.94-4.71C215.81,213.32,195.25,229.16,198,233.5Z" style="fill:#f7a9a0"></path><path d="M248.33,217.86s12.29,1.06,20.4,2.44c4.53.77,12.17,2.79,15.24,4.88,4.59,3.12,21.77,19.12,18,23.37-3.43,3.85-16.46-11.77-16.46-11.77s14.54,14.6,9.55,18.48-17.34-15.74-17.34-15.74,14.59,15.34,8.82,18.52c-4.36,2.41-16.56-14.72-16.56-14.72s12.46,13.27,8.08,15.94C273.21,262.2,261,247.1,261,247.1c-12.27,4.91-20.12,2.22-25.47-.35C234.19,246.13,248.33,217.86,248.33,217.86Z" style="fill:#f7a9a0"></path><path d="M280.8,231.41c1.77,1.65,3.57,3.31,5.19,5.12s3.17,3.67,4.61,5.61a42.34,42.34,0,0,1,4.89,8.11c-2.71-4.94-8.4-11.49-10-13.29s-3.14-3.69-4.75-5.49C280.69,231.42,280.76,231.37,280.8,231.41Z" style="fill:#263238"></path><path d="M274.18,237.13c2.17,2.21,4.4,4.32,6.47,6.62s3.81,4.66,5.71,7.08c.15.19,0,.21-.16,0-2-2.35-4-4.38-6-6.7s-3.95-4.74-6.05-7C274.09,237.14,274.15,237.09,274.18,237.13Z" style="fill:#263238"></path><path d="M267.61,241a68.85,68.85,0,0,1,9.12,10.89c.14.19-.06.19-.21,0-3-3.68-5.26-6.59-9-10.78C267.44,241.07,267.54,240.94,267.61,241Z" style="fill:#263238"></path><path d="M264.82,219.7a112.23,112.23,0,0,1,11.05,2c2.72.7,5.63,1.31,8,2.92,6.68,5,13,11.14,17.21,18.4a38.58,38.58,0,0,0-3.47-4.38,106.4,106.4,0,0,0-12.1-11.54,16.54,16.54,0,0,0-4.57-2.93c-5.2-2-10.73-3.12-16.13-4.47Z" style="fill:#263238"></path><path d="M231.67,215.18a44.4,44.4,0,0,0-17.93,3.23,22.05,22.05,0,0,1,17.93-3.23Z" style="fill:#263238"></path><path d="M209.24,187.08l30.09,1.33s4.27-14.52,5.49-22.9c1.63-11.07-2.11-14.27-12.54-5.36C225.29,166.11,209.24,187.08,209.24,187.08Z" style="fill:#E6D7C0"></path><g style="opacity:0.5"><path d="M209.24,187.08l30.09,1.33s4.27-14.52,5.49-22.9c1.63-11.07-2.11-14.27-12.54-5.36C225.29,166.11,209.24,187.08,209.24,187.08Z" style="fill:#fff"></path></g><path d="M237.26,188.32c.7-.12,1.39-.19,2.08-.24l-.33.23c1.51-6,3.09-11.93,5.14-17.76a84.38,84.38,0,0,1-1.84,9.08c-.78,3.09-1.68,6.15-2.76,9.15a22.63,22.63,0,0,1-2.29-.46Z" style="fill:#263238"></path><path d="M242.76,176c.69-1.21,1.35-2.38,2.09-3.54a4.6,4.6,0,0,1-2.09,3.54Z" style="fill:#263238"></path><path d="M228,164.36h0c-.37.39-.74.79-1.11,1.21a11.41,11.41,0,0,0,3.79-2A9.48,9.48,0,0,0,228,164.36Zm8.28,14a10.11,10.11,0,0,0-1.51-2.48,11,11,0,0,0,2.34,5.26A10.05,10.05,0,0,0,236.29,178.34Zm-17.06,5a10.21,10.21,0,0,0-.68,2.82,11.36,11.36,0,0,0,2.07-5.37A9.92,9.92,0,0,0,219.23,183.31Z" style="fill:#fff"></path><path d="M212.42,184.36c4.39-.11,8.78-.16,13.17,0q3.28.12,6.56.33c2.19.14,4.37.5,6.55.61.12,0,.1.2,0,.19-2.17-.22-4.4-.15-6.58-.26s-4.38-.2-6.57-.28c-4.37-.16-8.75-.33-13.13-.39C212.28,184.54,212.3,184.36,212.42,184.36Z" style="fill:#263238"></path><path d="M255.41,167.62c-4,.4-9.8-6.38-11.77-11.5-.13-.35,3-13.24,3.33-15.86.07-.54,15.9,6.19,15.9,6.19a42.43,42.43,0,0,0-2.94,9.85C259.89,156.68,259.25,167.24,255.41,167.62Z" style="fill:#f7a9a0"></path><path d="M259.89,156.83c0,.2,0,.45-.07.73a9.36,9.36,0,0,1-1.62-.13c-8.91-1.4-10.45-12.78-10.71-17.12h0l.3.09.67.23.37.13.5.18.26.1.56.21,1.89.73a1,1,0,0,0,.18.07c.17.07.33.13.49.21,1.33.52,2.76,1.11,4.11,1.67l.42.17,2,.84.5.21.28.12.28.12.73.31.4.16.27.12a1.27,1.27,0,0,1,.26.11l.84.35a41.9,41.9,0,0,0-2.94,9.85l0,.36v.17Z" style="fill:#263238"></path><path d="M267.3,118.09a8.69,8.69,0,0,1,7,6.93c1.12,6.06-.89,11.58-1.42,11.9S267.3,118.09,267.3,118.09Z" style="fill:#263238"></path><path d="M245.88,123.16c-2,5.82.56,22.89,4.61,26.82,5.88,5.68,15.78,6.53,20.68-.6,4.75-6.91,1-29.1-3.52-32.69C260.94,111.4,248.81,114.57,245.88,123.16Z" style="fill:#f7a9a0"></path><path d="M262.39,134s-.08.07-.07.12c.2,1.14.24,2.49-.74,3,0,0,0,.07,0,.06C262.84,136.83,262.77,135.05,262.39,134Z" style="fill:#263238"></path><path d="M261.19,132.94c-1.87.13-1.48,3.86.26,3.74S262.76,132.83,261.19,132.94Z" style="fill:#263238"></path><path d="M268.8,133.5c0-.05.1,0,.1.09.08,1.16.37,2.48,1.46,2.75,0,0,0,.07,0,.07C269.06,136.36,268.69,134.61,268.8,133.5Z" style="fill:#263238"></path><path d="M269.71,132.18c1.84-.33,2.38,3.38.67,3.69S268.16,132.46,269.71,132.18Z" style="fill:#263238"></path><path d="M259.54,131.39c.5-.19.92-.43,1.39-.66a2.51,2.51,0,0,0,1.3-.95.81.81,0,0,0-.23-.94,2,2,0,0,0-2,0,2.89,2.89,0,0,0-1.52,1.42A.85.85,0,0,0,259.54,131.39Z" style="fill:#263238"></path><path d="M271,130.15a13.29,13.29,0,0,1-1.52-.23,2.45,2.45,0,0,1-1.51-.53.81.81,0,0,1-.06-1,2,2,0,0,1,1.91-.57,2.94,2.94,0,0,1,1.88.92A.84.84,0,0,1,271,130.15Z" style="fill:#263238"></path><path d="M262.14,144.85c.3.25.62.59,1,.58a3.07,3.07,0,0,0,1.21-.42,0,0,0,0,1,.06.06,1.59,1.59,0,0,1-1.4.78,1.25,1.25,0,0,1-1-.93C262,144.85,262.09,144.82,262.14,144.85Z" style="fill:#263238"></path><path d="M263,141.27a4,4,0,0,0,2.81,1.47,4.92,4.92,0,0,0,1.43-.08,1.1,1.1,0,0,0,.26-.06l.25-.07a.29.29,0,0,0,.21-.28h0a.45.45,0,0,0,0-.11h0V142c-.07-.9-.3-2.24-.3-2.24.34.13,2.08.7,2,.24a60,60,0,0,0-2.78-11.76c0-.12-.23-.07-.2.05.46,3.7,1.57,7.3,2.09,11a7.05,7.05,0,0,0-1.92-.37c-.12.05.49,2.59.49,3v0a5.49,5.49,0,0,1-4.21-.84C263,141.09,262.91,141.18,263,141.27Z" style="fill:#263238"></path><path d="M247.77,140.72c2.11.16,3.07-6.26,3.2-8.68.12-2.14-.64-8.65-.64-9.1s9.84,3.73,14.49,1.18,7-7.74,6.58-9.84-7.72-6-13.12-5.1-11.12,9.29-11.12,9.29a25.08,25.08,0,0,0,1.67-3.69c-.13-.22-3.28,1.92-3.37,4.51,0,0,0-3.23-.27-3.23s-2.37,3.23-1.32,5.1c0,0-2.51,3.37-2.14,6.38S245.3,140.52,247.77,140.72Z" style="fill:#263238"></path><path d="M268.12,122.3A17.1,17.1,0,0,1,263.8,125a11.46,11.46,0,0,1-5.55.33,17.52,17.52,0,0,1-5.31-1.74c-1.47-.75-2.84-1.74-4.37-2.36-.38-.15-.66.41-.39.67a18.27,18.27,0,0,0,10.48,4.64,10.49,10.49,0,0,0,9.48-4.22S268.14,122.29,268.12,122.3Z" style="fill:#263238"></path><path d="M250.26,137.11s-3.77-5.53-6.28-4.2.27,9.34,3.19,10.46a3,3,0,0,0,4-1.55Z" style="fill:#f7a9a0"></path><path d="M244.83,135.18s-.05.07,0,.08c2,.86,3.09,2.78,3.82,4.76a1.63,1.63,0,0,0-2.45-.48c-.05,0,0,.12.06.11a1.82,1.82,0,0,1,2,.66,9.22,9.22,0,0,1,.95,1.64c.09.19.42.09.35-.12v-.05C249.62,139.17,247.64,135.48,244.83,135.18Z" style="fill:#263238"></path><rect x="278.46" y="434.37" width="96.44" height="10.2" style="fill:#263238"></rect><rect x="179.82" y="274.46" width="90.31" height="34.82" transform="translate(449.95 583.74) rotate(180)" style="fill:#a6a6a6"></rect><path d="M194.57,393h75.56v-4.36H194.57a12.41,12.41,0,0,1-12.4-12.4V197.09a16.77,16.77,0,0,0-16.75-16.76H155.23v4.37h10.19a12.41,12.41,0,0,1,12.39,12.39V376.27A16.78,16.78,0,0,0,194.57,393Z" style="fill:#c7c7c7"></path><path d="M268,438.14h4.36V253.26a15.11,15.11,0,0,0-15.09-15.09H180v4.37h77.23A10.74,10.74,0,0,1,268,253.26Z" style="fill:#c7c7c7"></path><rect x="141.72" y="178.02" width="27.03" height="8.67" transform="translate(310.47 364.72) rotate(180)" style="fill:#263238"></rect><path d="M125.79,375.57c0-42,27.38-76.17,61-76.17s61,34.17,61,76.17-27.38,76.17-61,76.17S125.79,417.57,125.79,375.57Zm6.11,0c0,38.63,24.63,70.06,54.92,70.06s54.92-31.43,54.92-70.06-24.64-70.06-54.92-70.06S131.9,336.94,131.9,375.57Z" style="fill:#263238"></path><path d="M128,375.57c0-37.23,24.22-67.52,54-67.52s54,30.29,54,67.52-24.22,67.52-54,67.52S128,412.8,128,375.57Zm4.36,0c0,34.83,22.27,63.16,49.63,63.16s49.63-28.33,49.63-63.16S209.37,312.41,182,312.41,132.37,340.74,132.37,375.57Z" style="fill:#c7c7c7"></path><path d="M175.31,375.57c0,6.1,3.92,11,8.76,11s8.75-4.94,8.75-11-3.92-11-8.75-11S175.31,369.47,175.31,375.57Z" style="fill:#c7c7c7"></path><ellipse cx="181.26" cy="375.57" rx="8.75" ry="11.04" style="fill:#dbdbdb"></ellipse><ellipse cx="271.08" cy="439.47" rx="11.39" ry="14.36" style="fill:#c7c7c7"></ellipse><ellipse cx="267.43" cy="439.47" rx="11.39" ry="14.36" style="fill:#dbdbdb"></ellipse></g><g id="freepik--speech-bubble--inject-21"><path d="M210.42,76.61a20.23,20.23,0,0,1-33.8,12.8L166.5,90.89l5.07-8.74a20.23,20.23,0,1,1,38.85-5.54Z" style="fill:#fff"></path><path d="M210.42,76.61a20.33,20.33,0,0,1-4.08,10.26,18.76,18.76,0,0,1-4,3.92,20.57,20.57,0,0,1-10.33,4,18.81,18.81,0,0,1-2.81,0,17.61,17.61,0,0,1-2.8-.29,20.37,20.37,0,0,1-10-4.94l.24.08-10.11,1.55-.74.11.37-.65,5-8.76,0,.34a20.43,20.43,0,1,1,39.22-5.68Zm0,0A20.32,20.32,0,0,0,204.28,60a20.53,20.53,0,0,0-7.8-4.6,20.19,20.19,0,0,0-9-.68,20,20,0,0,0-8.35,3.3,20.93,20.93,0,0,0-6.06,6.61,20,20,0,0,0-2.56,8.55A20.3,20.3,0,0,0,171.93,82l.07.18-.09.16-5.09,8.73-.37-.53,10.13-1.42.14,0,.1.09a19.88,19.88,0,0,0,9.69,5,18,18,0,0,0,2.74.34,19.7,19.7,0,0,0,2.77,0,20,20,0,0,0,5.4-1.19,19,19,0,0,0,4.88-2.63,24,24,0,0,0,2.14-1.78,22.62,22.62,0,0,0,1.83-2.09A20.27,20.27,0,0,0,210.42,76.61Z" style="fill:#263238"></path><path d="M201.58,75.12a2.45,2.45,0,1,1-2.45-2.44A2.45,2.45,0,0,1,201.58,75.12Z" style="fill:#263238"></path><path d="M192.8,75.12a2.45,2.45,0,1,1-2.45-2.44A2.45,2.45,0,0,1,192.8,75.12Z" style="fill:#263238"></path><path d="M184,75.12a2.45,2.45,0,1,1-2.45-2.44A2.45,2.45,0,0,1,184,75.12Z" style="fill:#263238"></path></g></svg>